<?xml version="1.0" encoding="utf-8"?>
<!-- Generator: Adobe Illustrator 21.0.1, SVG Export Plug-In . SVG Version: 6.00 Build 0)  -->
<!DOCTYPE svg PUBLIC "-//W3C//DTD SVG 1.1//EN" "http://www.w3.org/Graphics/SVG/1.1/DTD/svg11.dtd">
<svg version="1.1" id="Layer_1" xmlns="http://www.w3.org/2000/svg" xmlns:xlink="http://www.w3.org/1999/xlink" x="0px" y="0px"
	 width="561.1px" height="432.5px" viewBox="0 0 561.1 432.5" enable-background="new 0 0 561.1 432.5" xml:space="preserve">
<g>
	<path fill="#FFFFFF" d="M363,90.1c-3.3,0-161.7,3.3-165.7,4.7s-21.3,17.3-24.6,22.6c-3.3,5.3-12,85.2-12,85.2s-12,51.9-11.3,53.9
		c0.7,2,20,21.3,20,23.3s51.2,15.3,53.9,15.3s292.9-11.3,292.9-11.3s22.6-58.6,20-64.6c-2.7-6-18.6-87.9-18.6-87.9l-12-33.3
		c0,0-10.6-10-18.6-8S363,90.1,363,90.1z"/>
	<path fill="#171716" d="M246.7,152.4v65c0,13.6,11,24.6,24.6,24.6s24.6-11,24.6-24.6v-59.1L246.7,152.4z"/>
	<path fill="#171716" d="M393.8,158.3v59.1c0,13.6,11,24.6,24.6,24.6c13.6,0,24.6-11,24.6-24.6v-65L393.8,158.3z"/>
	<path fill="#171716" d="M521.6,91.8C482.5,36.3,417.9,0,344.8,0S207.1,36.3,167.9,91.8c-8.3,11.8-15.5,24.4-21.3,37.8L10.4,118
		l78.9,70.6L0,240l131.4,11.2c1.5,9.4,3.6,18.6,6.3,27.5c26.8,89,109.4,153.8,207.1,153.8s180.3-64.8,207.1-153.8
		c6-19.8,9.2-40.8,9.2-62.5C561.1,169.9,546.5,127,521.6,91.8z M510.3,272.1c-50.3-7.9-106.4-15.6-165.5-15.6
		c-60,0-116.8,7.9-167.6,15.9c-7.4-19.5-11.5-40.7-11.5-62.9c0-38.8,12.4-74.6,33.5-103.8c0,0,0,0,0,0
		c38.4,13.9,89.5,22.4,145.6,22.4c55.2,0,105.6-8.2,143.9-21.8c20.8,29.1,33,64.7,33,103.2C521.6,231.6,517.6,252.7,510.3,272.1z"/>
</g>
</svg>
