<?xml version="1.0" encoding="utf-8"?>
<!-- Generator: Adobe Illustrator 21.0.1, SVG Export Plug-In . SVG Version: 6.00 Build 0)  -->
<!DOCTYPE svg PUBLIC "-//W3C//DTD SVG 1.1//EN" "http://www.w3.org/Graphics/SVG/1.1/DTD/svg11.dtd">
<svg version="1.1" id="Layer_1" xmlns="http://www.w3.org/2000/svg" xmlns:xlink="http://www.w3.org/1999/xlink" x="0px" y="0px"
	 width="561.1px" height="432.5px" viewBox="0 0 561.1 432.5" enable-background="new 0 0 561.1 432.5" xml:space="preserve">
<path fill="#FFFFFF" d="M-807,468.7c-17.1,6.1-39.7,9.8-64.5,9.8c-25.2,0-48.1-3.8-65.3-10c-9.4,13.1-15,29.2-15,46.6
	c0,10.1,1.9,19.7,5.3,28.5c22.8-2.7,48.2-4.3,75-4.3c26.5,0,51.6,1.5,74.1,4.2c3.4-8.8,5.2-18.4,5.2-28.4
	C-792.2,497.7-797.7,481.7-807,468.7z"/>
<path fill="#171716" d="M-792.2,462.1c-17.6-24.9-46.5-41.2-79.3-41.2s-61.8,16.3-79.3,41.2c17.6,9.9,46.5,16.3,79.3,16.3
	S-809.7,472-792.2,462.1z"/>
<path fill="#171716" d="M-792.2,462.1c-17.6-24.9-46.5-41.2-79.3-41.2s-61.8,16.3-79.3,41.2c17.6,9.9,46.5,16.3,79.3,16.3
	S-809.7,472-792.2,462.1z"/>
<path fill="#171716" d="M-871.5,614.9c43.8,0,80.9-29.1,92.9-69c-27-4.3-58.8-6.7-92.9-6.7s-65.9,2.5-92.9,6.7
	C-952.4,585.9-915.3,614.9-871.5,614.9z"/>
<path fill="#171716" d="M-871.5,614.9c43.8,0,80.9-29.1,92.9-69c-27-4.3-58.8-10-92.9-10s-65.9,5.7-92.9,10
	C-952.4,585.9-915.3,614.9-871.5,614.9z"/>
<g>
	<g>
		<path fill="#171716" d="M-893.5,518.4c0-6.1-4.9-18-11-18c-6.1,0-11,11.9-11,18s4.9,11,11,11
			C-898.4,529.5-893.5,524.5-893.5,518.4z"/>
		<polygon fill="#171716" points="-893.5,491.9 -915.5,489.3 -915.5,518.4 -893.5,518.4 		"/>
	</g>
	<g>
		<path fill="#171716" d="M-849.5,518.4c0-6.1,4.9-18,11-18c6.1,0,11,11.9,11,18s-4.9,11-11,11
			C-844.6,529.5-849.5,524.5-849.5,518.4z"/>
		<polygon fill="#171716" points="-849.5,491.9 -827.5,489.3 -827.5,518.4 -849.5,518.4 		"/>
	</g>
</g>
<path fill="#171716" d="M-936.8,468.4c-5.2-1.9-9.9-4-14-6.3c-11.1,15.8-17.7,35-17.7,55.8c0,9.7,1.4,19.2,4.1,28
	c5.7-0.9,11.7-1.7,17.8-2.5c-3.4-8.9-5.3-18.5-5.3-28.5C-951.8,497.6-946.2,481.5-936.8,468.4z"/>
<path fill="#171716" d="M-774.5,517.9c0-20.8-6.5-40-17.7-55.8c-4.3,2.4-9.3,4.6-14.8,6.6c9.3,13.1,14.8,29,14.8,46.3
	c0,10-1.9,19.6-5.2,28.4c6.5,0.8,12.8,1.6,18.8,2.6C-775.9,537.1-774.5,527.7-774.5,517.9z"/>
<polygon fill="#171716" points="-1025.3,523.5 -955.5,529.5 -950.8,474.7 -1020.6,468.8 -985.2,500.4 "/>
<g>
	<path fill="#FFFFFF" d="M363,90.1c-3.3,0-161.7,3.3-165.7,4.7s-21.3,17.3-24.6,22.6c-3.3,5.3-12,85.2-12,85.2s-12,51.9-11.3,53.9
		c0.7,2,20,21.3,20,23.3s51.2,15.3,53.9,15.3s292.9-11.3,292.9-11.3s22.6-58.6,20-64.6c-2.7-6-18.6-87.9-18.6-87.9l-12-33.3
		c0,0-10.6-10-18.6-8S363,90.1,363,90.1z"/>
	<path fill="#171716" d="M246.7,152.4v65c0,13.6,11,24.6,24.6,24.6s24.6-11,24.6-24.6v-59.1L246.7,152.4z"/>
	<path fill="#171716" d="M393.8,158.3v59.1c0,13.6,11,24.6,24.6,24.6c13.6,0,24.6-11,24.6-24.6v-65L393.8,158.3z"/>
	<path fill="#171716" d="M521.6,91.8C482.5,36.3,417.9,0,344.8,0S207.1,36.3,167.9,91.8c-8.3,11.8-15.5,24.4-21.3,37.8L10.4,118
		l78.9,70.6L0,240l131.4,11.2c1.5,9.4,3.6,18.6,6.3,27.5c26.8,89,109.4,153.8,207.1,153.8s180.3-64.8,207.1-153.8
		c6-19.8,9.2-40.8,9.2-62.5C561.1,169.9,546.5,127,521.6,91.8z M510.3,272.1c-50.3-7.9-106.4-15.6-165.5-15.6
		c-60,0-116.8,7.9-167.6,15.9c-7.4-19.5-11.5-40.7-11.5-62.9c0-38.8,12.4-74.6,33.5-103.8c0,0,0,0,0,0
		c38.4,13.9,89.5,22.4,145.6,22.4c55.2,0,105.6-8.2,143.9-21.8c20.8,29.1,33,64.7,33,103.2C521.6,231.6,517.6,252.7,510.3,272.1z"/>
</g>
</svg>
